<svg id="visual" viewBox="0 0 900 600" width="900" height="600" xmlns="http://www.w3.org/2000/svg" xmlns:xlink="http://www.w3.org/1999/xlink" version="1.1"><rect x="0" y="0" width="900" height="600" fill="#000000"></rect><path d="M0 279L21.5 319.8C43 360.7 86 442.3 128.8 465.8C171.7 489.3 214.3 454.7 257.2 440.7C300 426.7 343 433.3 385.8 434.3C428.7 435.3 471.3 430.7 514.2 388C557 345.3 600 264.7 642.8 238.5C685.7 212.3 728.3 240.7 771.2 268.7C814 296.7 857 324.3 878.5 338.2L900 352L900 0L878.5 0C857 0 814 0 771.2 0C728.3 0 685.7 0 642.8 0C600 0 557 0 514.2 0C471.3 0 428.7 0 385.8 0C343 0 300 0 257.2 0C214.3 0 171.7 0 128.8 0C86 0 43 0 21.5 0L0 0Z" fill="#26ab1d"></path><path d="M0 280L21.5 297C43 314 86 348 128.8 346.7C171.7 345.3 214.3 308.7 257.2 300.3C300 292 343 312 385.8 312.8C428.7 313.7 471.3 295.3 514.2 288.8C557 282.3 600 287.7 642.8 320C685.7 352.3 728.3 411.7 771.2 427C814 442.3 857 413.7 878.5 399.3L900 385L900 0L878.5 0C857 0 814 0 771.2 0C728.3 0 685.7 0 642.8 0C600 0 557 0 514.2 0C471.3 0 428.7 0 385.8 0C343 0 300 0 257.2 0C214.3 0 171.7 0 128.8 0C86 0 43 0 21.5 0L0 0Z" fill="#2aa41d"></path><path d="M0 453L21.5 418.5C43 384 86 315 128.8 313.5C171.7 312 214.3 378 257.2 373.7C300 369.3 343 294.7 385.8 285.2C428.7 275.7 471.3 331.3 514.2 358.7C557 386 600 385 642.8 384C685.7 383 728.3 382 771.2 367.2C814 352.3 857 323.7 878.5 309.3L900 295L900 0L878.5 0C857 0 814 0 771.2 0C728.3 0 685.7 0 642.8 0C600 0 557 0 514.2 0C471.3 0 428.7 0 385.8 0C343 0 300 0 257.2 0C214.3 0 171.7 0 128.8 0C86 0 43 0 21.5 0L0 0Z" fill="#2d9c1c"></path><path d="M0 196L21.5 182C43 168 86 140 128.8 121.3C171.7 102.7 214.3 93.3 257.2 130.7C300 168 343 252 385.8 280.7C428.7 309.3 471.3 282.7 514.2 247.3C557 212 600 168 642.8 163.8C685.7 159.7 728.3 195.3 771.2 235C814 274.7 857 318.3 878.5 340.2L900 362L900 0L878.5 0C857 0 814 0 771.2 0C728.3 0 685.7 0 642.8 0C600 0 557 0 514.2 0C471.3 0 428.7 0 385.8 0C343 0 300 0 257.2 0C214.3 0 171.7 0 128.8 0C86 0 43 0 21.5 0L0 0Z" fill="#30951c"></path><path d="M0 324L21.5 302.8C43 281.7 86 239.3 128.8 245.3C171.7 251.3 214.3 305.7 257.2 307.2C300 308.7 343 257.3 385.8 226.5C428.7 195.7 471.3 185.3 514.2 167.5C557 149.7 600 124.3 642.8 150C685.7 175.7 728.3 252.3 771.2 265C814 277.7 857 226.3 878.5 200.7L900 175L900 0L878.5 0C857 0 814 0 771.2 0C728.3 0 685.7 0 642.8 0C600 0 557 0 514.2 0C471.3 0 428.7 0 385.8 0C343 0 300 0 257.2 0C214.3 0 171.7 0 128.8 0C86 0 43 0 21.5 0L0 0Z" fill="#318e1c"></path><path d="M0 221L21.5 210.5C43 200 86 179 128.8 188.7C171.7 198.3 214.3 238.7 257.2 230.2C300 221.7 343 164.3 385.8 143.2C428.7 122 471.3 137 514.2 167C557 197 600 242 642.8 233.7C685.7 225.3 728.3 163.7 771.2 127.3C814 91 857 80 878.5 74.5L900 69L900 0L878.5 0C857 0 814 0 771.2 0C728.3 0 685.7 0 642.8 0C600 0 557 0 514.2 0C471.3 0 428.7 0 385.8 0C343 0 300 0 257.2 0C214.3 0 171.7 0 128.8 0C86 0 43 0 21.5 0L0 0Z" fill="#33861c"></path><path d="M0 126L21.5 139.2C43 152.3 86 178.7 128.8 196C171.7 213.3 214.3 221.7 257.2 204.8C300 188 343 146 385.8 150.7C428.7 155.3 471.3 206.7 514.2 218.2C557 229.7 600 201.3 642.8 169.5C685.7 137.7 728.3 102.3 771.2 89.3C814 76.3 857 85.7 878.5 90.3L900 95L900 0L878.5 0C857 0 814 0 771.2 0C728.3 0 685.7 0 642.8 0C600 0 557 0 514.2 0C471.3 0 428.7 0 385.8 0C343 0 300 0 257.2 0C214.3 0 171.7 0 128.8 0C86 0 43 0 21.5 0L0 0Z" fill="#337f1c"></path><path d="M0 189L21.5 187.3C43 185.7 86 182.3 128.8 182.8C171.7 183.3 214.3 187.7 257.2 175C300 162.3 343 132.7 385.8 128.8C428.7 125 471.3 147 514.2 149.7C557 152.3 600 135.7 642.8 139C685.7 142.3 728.3 165.7 771.2 179.3C814 193 857 197 878.5 199L900 201L900 0L878.5 0C857 0 814 0 771.2 0C728.3 0 685.7 0 642.8 0C600 0 557 0 514.2 0C471.3 0 428.7 0 385.8 0C343 0 300 0 257.2 0C214.3 0 171.7 0 128.8 0C86 0 43 0 21.5 0L0 0Z" fill="#34781b"></path><path d="M0 20L21.5 40.5C43 61 86 102 128.8 120.5C171.7 139 214.3 135 257.2 121.7C300 108.3 343 85.7 385.8 74.5C428.7 63.3 471.3 63.7 514.2 66.2C557 68.7 600 73.3 642.8 68.5C685.7 63.7 728.3 49.3 771.2 54.3C814 59.3 857 83.7 878.5 95.8L900 108L900 0L878.5 0C857 0 814 0 771.2 0C728.3 0 685.7 0 642.8 0C600 0 557 0 514.2 0C471.3 0 428.7 0 385.8 0C343 0 300 0 257.2 0C214.3 0 171.7 0 128.8 0C86 0 43 0 21.5 0L0 0Z" fill="#33711b"></path><path d="M0 8L21.5 9.8C43 11.7 86 15.3 128.8 29.5C171.7 43.7 214.3 68.3 257.2 80.8C300 93.3 343 93.7 385.8 82.2C428.7 70.7 471.3 47.3 514.2 34.3C557 21.3 600 18.7 642.8 16.5C685.7 14.3 728.3 12.7 771.2 11.3C814 10 857 9 878.5 8.5L900 8L900 0L878.5 0C857 0 814 0 771.2 0C728.3 0 685.7 0 642.8 0C600 0 557 0 514.2 0C471.3 0 428.7 0 385.8 0C343 0 300 0 257.2 0C214.3 0 171.7 0 128.8 0C86 0 43 0 21.5 0L0 0Z" fill="#336a1b"></path></svg>