<svg id="visual" viewBox="0 0 900 600" width="900" height="600" xmlns="http://www.w3.org/2000/svg" xmlns:xlink="http://www.w3.org/1999/xlink" version="1.1"><rect x="0" y="0" width="900" height="600" fill="#000000"></rect><path d="M0 388L21.5 384.2C43 380.3 86 372.7 128.8 336.2C171.7 299.7 214.3 234.3 257.2 241.8C300 249.3 343 329.7 385.8 361.8C428.7 394 471.3 378 514.2 361.2C557 344.3 600 326.7 642.8 329.2C685.7 331.7 728.3 354.3 771.2 341C814 327.7 857 278.3 878.5 253.7L900 229L900 0L878.5 0C857 0 814 0 771.2 0C728.3 0 685.7 0 642.8 0C600 0 557 0 514.2 0C471.3 0 428.7 0 385.8 0C343 0 300 0 257.2 0C214.3 0 171.7 0 128.8 0C86 0 43 0 21.5 0L0 0Z" fill="#0aa300"></path><path d="M0 168L21.5 180C43 192 86 216 128.8 249.2C171.7 282.3 214.3 324.7 257.2 308.3C300 292 343 217 385.8 188.7C428.7 160.3 471.3 178.7 514.2 186.7C557 194.7 600 192.3 642.8 221.2C685.7 250 728.3 310 771.2 342.3C814 374.7 857 379.3 878.5 381.7L900 384L900 0L878.5 0C857 0 814 0 771.2 0C728.3 0 685.7 0 642.8 0C600 0 557 0 514.2 0C471.3 0 428.7 0 385.8 0C343 0 300 0 257.2 0C214.3 0 171.7 0 128.8 0C86 0 43 0 21.5 0L0 0Z" fill="#189c05"></path><path d="M0 281L21.5 285C43 289 86 297 128.8 292.5C171.7 288 214.3 271 257.2 234C300 197 343 140 385.8 135.5C428.7 131 471.3 179 514.2 197.2C557 215.3 600 203.7 642.8 225.2C685.7 246.7 728.3 301.3 771.2 301.5C814 301.7 857 247.3 878.5 220.2L900 193L900 0L878.5 0C857 0 814 0 771.2 0C728.3 0 685.7 0 642.8 0C600 0 557 0 514.2 0C471.3 0 428.7 0 385.8 0C343 0 300 0 257.2 0C214.3 0 171.7 0 128.8 0C86 0 43 0 21.5 0L0 0Z" fill="#219609"></path><path d="M0 105L21.5 117.3C43 129.7 86 154.3 128.8 170.8C171.7 187.3 214.3 195.7 257.2 178C300 160.3 343 116.7 385.8 111.3C428.7 106 471.3 139 514.2 157C557 175 600 178 642.8 175.7C685.7 173.3 728.3 165.7 771.2 184.7C814 203.7 857 249.3 878.5 272.2L900 295L900 0L878.5 0C857 0 814 0 771.2 0C728.3 0 685.7 0 642.8 0C600 0 557 0 514.2 0C471.3 0 428.7 0 385.8 0C343 0 300 0 257.2 0C214.3 0 171.7 0 128.8 0C86 0 43 0 21.5 0L0 0Z" fill="#26900d"></path><path d="M0 254L21.5 252.8C43 251.7 86 249.3 128.8 224.5C171.7 199.7 214.3 152.3 257.2 153C300 153.7 343 202.3 385.8 208.3C428.7 214.3 471.3 177.7 514.2 162.2C557 146.7 600 152.3 642.8 162C685.7 171.7 728.3 185.3 771.2 196.7C814 208 857 217 878.5 221.5L900 226L900 0L878.5 0C857 0 814 0 771.2 0C728.3 0 685.7 0 642.8 0C600 0 557 0 514.2 0C471.3 0 428.7 0 385.8 0C343 0 300 0 257.2 0C214.3 0 171.7 0 128.8 0C86 0 43 0 21.5 0L0 0Z" fill="#2a8911"></path><path d="M0 216L21.5 198C43 180 86 144 128.8 141.3C171.7 138.7 214.3 169.3 257.2 176.8C300 184.3 343 168.7 385.8 160.2C428.7 151.7 471.3 150.3 514.2 162.5C557 174.7 600 200.3 642.8 196.8C685.7 193.3 728.3 160.7 771.2 147.3C814 134 857 140 878.5 143L900 146L900 0L878.5 0C857 0 814 0 771.2 0C728.3 0 685.7 0 642.8 0C600 0 557 0 514.2 0C471.3 0 428.7 0 385.8 0C343 0 300 0 257.2 0C214.3 0 171.7 0 128.8 0C86 0 43 0 21.5 0L0 0Z" fill="#2d8313"></path><path d="M0 143L21.5 129.3C43 115.7 86 88.3 128.8 82.2C171.7 76 214.3 91 257.2 113.5C300 136 343 166 385.8 172.3C428.7 178.7 471.3 161.3 514.2 158.2C557 155 600 166 642.8 148C685.7 130 728.3 83 771.2 77.2C814 71.3 857 106.7 878.5 124.3L900 142L900 0L878.5 0C857 0 814 0 771.2 0C728.3 0 685.7 0 642.8 0C600 0 557 0 514.2 0C471.3 0 428.7 0 385.8 0C343 0 300 0 257.2 0C214.3 0 171.7 0 128.8 0C86 0 43 0 21.5 0L0 0Z" fill="#307d16"></path><path d="M0 113L21.5 99.3C43 85.7 86 58.3 128.8 56.5C171.7 54.7 214.3 78.3 257.2 93.2C300 108 343 114 385.8 115.7C428.7 117.3 471.3 114.7 514.2 108.5C557 102.3 600 92.7 642.8 93C685.7 93.3 728.3 103.7 771.2 107.5C814 111.3 857 108.7 878.5 107.3L900 106L900 0L878.5 0C857 0 814 0 771.2 0C728.3 0 685.7 0 642.8 0C600 0 557 0 514.2 0C471.3 0 428.7 0 385.8 0C343 0 300 0 257.2 0C214.3 0 171.7 0 128.8 0C86 0 43 0 21.5 0L0 0Z" fill="#317618"></path><path d="M0 46L21.5 42C43 38 86 30 128.8 34.7C171.7 39.3 214.3 56.7 257.2 63.2C300 69.7 343 65.3 385.8 58.7C428.7 52 471.3 43 514.2 53.2C557 63.3 600 92.7 642.8 98.2C685.7 103.7 728.3 85.3 771.2 85C814 84.7 857 102.3 878.5 111.2L900 120L900 0L878.5 0C857 0 814 0 771.2 0C728.3 0 685.7 0 642.8 0C600 0 557 0 514.2 0C471.3 0 428.7 0 385.8 0C343 0 300 0 257.2 0C214.3 0 171.7 0 128.8 0C86 0 43 0 21.5 0L0 0Z" fill="#327019"></path><path d="M0 22L21.5 26.2C43 30.3 86 38.7 128.8 43C171.7 47.3 214.3 47.7 257.2 51.8C300 56 343 64 385.8 65.2C428.7 66.3 471.3 60.7 514.2 52.8C557 45 600 35 642.8 37.7C685.7 40.3 728.3 55.7 771.2 54.7C814 53.7 857 36.3 878.5 27.7L900 19L900 0L878.5 0C857 0 814 0 771.2 0C728.3 0 685.7 0 642.8 0C600 0 557 0 514.2 0C471.3 0 428.7 0 385.8 0C343 0 300 0 257.2 0C214.3 0 171.7 0 128.8 0C86 0 43 0 21.5 0L0 0Z" fill="#336a1b"></path></svg>