<svg id="visual" viewBox="0 0 900 600" width="900" height="600" xmlns="http://www.w3.org/2000/svg" xmlns:xlink="http://www.w3.org/1999/xlink" version="1.1"><rect x="0" y="0" width="900" height="600" fill="#309b18"></rect><g transform="translate(633.2867122888797 303.59365869009685)"><path d="M149.1 -197.3C214.4 -220.4 303.4 -223.5 282.5 -187.2C261.5 -151 130.8 -75.5 193.9 36.4C256.9 148.3 513.8 296.7 537 336.8C560.2 376.9 349.6 308.8 221.1 401.8C92.7 494.8 46.3 748.9 -33 806.1C-112.3 863.2 -224.7 723.5 -252.7 572.5C-280.7 421.5 -224.3 259.2 -299 162C-373.7 64.7 -579.3 32.3 -718.2 -80.2C-857 -192.7 -929.1 -385.3 -898.3 -558.5C-867.4 -731.7 -733.7 -885.5 -566.9 -803.8C-400 -722.2 -200 -405.1 -79.1 -268.1C41.8 -131.1 83.7 -174.2 149.1 -197.3" fill="#000000"></path></g></svg>