<svg id="visual" viewBox="0 0 900 600" width="900" height="600" xmlns="http://www.w3.org/2000/svg" xmlns:xlink="http://www.w3.org/1999/xlink" version="1.1"><rect x="0" y="0" width="900" height="600" fill="#000000"></rect><path d="M0 347L21.5 322C43 297 86 247 128.8 234C171.7 221 214.3 245 257.2 286.8C300 328.7 343 388.3 385.8 352C428.7 315.7 471.3 183.3 514.2 185.8C557 188.3 600 325.7 642.8 325.8C685.7 326 728.3 189 771.2 131.2C814 73.3 857 94.7 878.5 105.3L900 116L900 601L878.5 601C857 601 814 601 771.2 601C728.3 601 685.7 601 642.8 601C600 601 557 601 514.2 601C471.3 601 428.7 601 385.8 601C343 601 300 601 257.2 601C214.3 601 171.7 601 128.8 601C86 601 43 601 21.5 601L0 601Z" fill="#0aa300"></path><path d="M0 108L21.5 164.7C43 221.3 86 334.7 128.8 400.8C171.7 467 214.3 486 257.2 443.7C300 401.3 343 297.7 385.8 269.5C428.7 241.3 471.3 288.7 514.2 313.7C557 338.7 600 341.3 642.8 328C685.7 314.7 728.3 285.3 771.2 284.7C814 284 857 312 878.5 326L900 340L900 601L878.5 601C857 601 814 601 771.2 601C728.3 601 685.7 601 642.8 601C600 601 557 601 514.2 601C471.3 601 428.7 601 385.8 601C343 601 300 601 257.2 601C214.3 601 171.7 601 128.8 601C86 601 43 601 21.5 601L0 601Z" fill="#189c05"></path><path d="M0 342L21.5 358C43 374 86 406 128.8 410.7C171.7 415.3 214.3 392.7 257.2 405.8C300 419 343 468 385.8 481.7C428.7 495.3 471.3 473.7 514.2 454.7C557 435.7 600 419.3 642.8 409.3C685.7 399.3 728.3 395.7 771.2 371.5C814 347.3 857 302.7 878.5 280.3L900 258L900 601L878.5 601C857 601 814 601 771.2 601C728.3 601 685.7 601 642.8 601C600 601 557 601 514.2 601C471.3 601 428.7 601 385.8 601C343 601 300 601 257.2 601C214.3 601 171.7 601 128.8 601C86 601 43 601 21.5 601L0 601Z" fill="#219609"></path><path d="M0 192L21.5 210.7C43 229.3 86 266.7 128.8 303.2C171.7 339.7 214.3 375.3 257.2 392.3C300 409.3 343 407.7 385.8 420.8C428.7 434 471.3 462 514.2 428.3C557 394.7 600 299.3 642.8 292.2C685.7 285 728.3 366 771.2 386C814 406 857 365 878.5 344.5L900 324L900 601L878.5 601C857 601 814 601 771.2 601C728.3 601 685.7 601 642.8 601C600 601 557 601 514.2 601C471.3 601 428.7 601 385.8 601C343 601 300 601 257.2 601C214.3 601 171.7 601 128.8 601C86 601 43 601 21.5 601L0 601Z" fill="#26900d"></path><path d="M0 325L21.5 324C43 323 86 321 128.8 351.5C171.7 382 214.3 445 257.2 444.2C300 443.3 343 378.7 385.8 345.7C428.7 312.7 471.3 311.3 514.2 299.2C557 287 600 264 642.8 301.3C685.7 338.7 728.3 436.3 771.2 482.7C814 529 857 524 878.5 521.5L900 519L900 601L878.5 601C857 601 814 601 771.2 601C728.3 601 685.7 601 642.8 601C600 601 557 601 514.2 601C471.3 601 428.7 601 385.8 601C343 601 300 601 257.2 601C214.3 601 171.7 601 128.8 601C86 601 43 601 21.5 601L0 601Z" fill="#2a8911"></path><path d="M0 290L21.5 297.8C43 305.7 86 321.3 128.8 333.8C171.7 346.3 214.3 355.7 257.2 374C300 392.3 343 419.7 385.8 445.8C428.7 472 471.3 497 514.2 499.2C557 501.3 600 480.7 642.8 453.2C685.7 425.7 728.3 391.3 771.2 377.2C814 363 857 369 878.5 372L900 375L900 601L878.5 601C857 601 814 601 771.2 601C728.3 601 685.7 601 642.8 601C600 601 557 601 514.2 601C471.3 601 428.7 601 385.8 601C343 601 300 601 257.2 601C214.3 601 171.7 601 128.8 601C86 601 43 601 21.5 601L0 601Z" fill="#2d8313"></path><path d="M0 396L21.5 424.3C43 452.7 86 509.3 128.8 539.3C171.7 569.3 214.3 572.7 257.2 563C300 553.3 343 530.7 385.8 497.7C428.7 464.7 471.3 421.3 514.2 395C557 368.7 600 359.3 642.8 370.2C685.7 381 728.3 412 771.2 413.8C814 415.7 857 388.3 878.5 374.7L900 361L900 601L878.5 601C857 601 814 601 771.2 601C728.3 601 685.7 601 642.8 601C600 601 557 601 514.2 601C471.3 601 428.7 601 385.8 601C343 601 300 601 257.2 601C214.3 601 171.7 601 128.8 601C86 601 43 601 21.5 601L0 601Z" fill="#307d16"></path><path d="M0 408L21.5 437.3C43 466.7 86 525.3 128.8 548.2C171.7 571 214.3 558 257.2 530.3C300 502.7 343 460.3 385.8 467C428.7 473.7 471.3 529.3 514.2 541.5C557 553.7 600 522.3 642.8 515.3C685.7 508.3 728.3 525.7 771.2 527.7C814 529.7 857 516.3 878.5 509.7L900 503L900 601L878.5 601C857 601 814 601 771.2 601C728.3 601 685.7 601 642.8 601C600 601 557 601 514.2 601C471.3 601 428.7 601 385.8 601C343 601 300 601 257.2 601C214.3 601 171.7 601 128.8 601C86 601 43 601 21.5 601L0 601Z" fill="#317618"></path><path d="M0 444L21.5 457.5C43 471 86 498 128.8 513.2C171.7 528.3 214.3 531.7 257.2 520.7C300 509.7 343 484.3 385.8 480.3C428.7 476.3 471.3 493.7 514.2 505.5C557 517.3 600 523.7 642.8 523.3C685.7 523 728.3 516 771.2 508.7C814 501.3 857 493.7 878.5 489.8L900 486L900 601L878.5 601C857 601 814 601 771.2 601C728.3 601 685.7 601 642.8 601C600 601 557 601 514.2 601C471.3 601 428.7 601 385.8 601C343 601 300 601 257.2 601C214.3 601 171.7 601 128.8 601C86 601 43 601 21.5 601L0 601Z" fill="#327019"></path><path d="M0 497L21.5 502.8C43 508.7 86 520.3 128.8 529.7C171.7 539 214.3 546 257.2 551.2C300 556.3 343 559.7 385.8 565.8C428.7 572 471.3 581 514.2 574.3C557 567.7 600 545.3 642.8 538.3C685.7 531.3 728.3 539.7 771.2 543.7C814 547.7 857 547.3 878.5 547.2L900 547L900 601L878.5 601C857 601 814 601 771.2 601C728.3 601 685.7 601 642.8 601C600 601 557 601 514.2 601C471.3 601 428.7 601 385.8 601C343 601 300 601 257.2 601C214.3 601 171.7 601 128.8 601C86 601 43 601 21.5 601L0 601Z" fill="#336a1b"></path></svg>