<svg id="visual" viewBox="0 0 900 600" width="900" height="600" xmlns="http://www.w3.org/2000/svg" xmlns:xlink="http://www.w3.org/1999/xlink" version="1.1"><rect x="0" y="0" width="900" height="600" fill="#000000"></rect><path d="M0 201L21.5 221C43 241 86 281 128.8 291.3C171.7 301.7 214.3 282.3 257.2 248.7C300 215 343 167 385.8 196C428.7 225 471.3 331 514.2 329.2C557 327.3 600 217.7 642.8 217.7C685.7 217.7 728.3 327.3 771.2 373.7C814 420 857 403 878.5 394.5L900 386L900 0L878.5 0C857 0 814 0 771.2 0C728.3 0 685.7 0 642.8 0C600 0 557 0 514.2 0C471.3 0 428.7 0 385.8 0C343 0 300 0 257.2 0C214.3 0 171.7 0 128.8 0C86 0 43 0 21.5 0L0 0Z" fill="#0aa300"></path><path d="M0 391L21.5 345.8C43 300.7 86 210.3 128.8 157.5C171.7 104.7 214.3 89.3 257.2 123.2C300 157 343 240 385.8 262.7C428.7 285.3 471.3 247.7 514.2 227.7C557 207.7 600 205.3 642.8 215.8C685.7 226.3 728.3 249.7 771.2 250.2C814 250.7 857 228.3 878.5 217.2L900 206L900 0L878.5 0C857 0 814 0 771.2 0C728.3 0 685.7 0 642.8 0C600 0 557 0 514.2 0C471.3 0 428.7 0 385.8 0C343 0 300 0 257.2 0C214.3 0 171.7 0 128.8 0C86 0 43 0 21.5 0L0 0Z" fill="#189c05"></path><path d="M0 205L21.5 192C43 179 86 153 128.8 149.2C171.7 145.3 214.3 163.7 257.2 153.2C300 142.7 343 103.3 385.8 92.5C428.7 81.7 471.3 99.3 514.2 114.7C557 130 600 143 642.8 151C685.7 159 728.3 162 771.2 181.3C814 200.7 857 236.3 878.5 254.2L900 272L900 0L878.5 0C857 0 814 0 771.2 0C728.3 0 685.7 0 642.8 0C600 0 557 0 514.2 0C471.3 0 428.7 0 385.8 0C343 0 300 0 257.2 0C214.3 0 171.7 0 128.8 0C86 0 43 0 21.5 0L0 0Z" fill="#219609"></path><path d="M0 325L21.5 310C43 295 86 265 128.8 235.8C171.7 206.7 214.3 178.3 257.2 164.7C300 151 343 152 385.8 141.3C428.7 130.7 471.3 108.3 514.2 135.3C557 162.3 600 238.7 642.8 244.3C685.7 250 728.3 185 771.2 169C814 153 857 186 878.5 202.5L900 219L900 0L878.5 0C857 0 814 0 771.2 0C728.3 0 685.7 0 642.8 0C600 0 557 0 514.2 0C471.3 0 428.7 0 385.8 0C343 0 300 0 257.2 0C214.3 0 171.7 0 128.8 0C86 0 43 0 21.5 0L0 0Z" fill="#26900d"></path><path d="M0 219L21.5 219.7C43 220.3 86 221.7 128.8 197.2C171.7 172.7 214.3 122.3 257.2 123C300 123.7 343 175.3 385.8 201.7C428.7 228 471.3 229 514.2 238.7C557 248.3 600 266.7 642.8 236.8C685.7 207 728.3 129 771.2 92C814 55 857 59 878.5 61L900 63L900 0L878.5 0C857 0 814 0 771.2 0C728.3 0 685.7 0 642.8 0C600 0 557 0 514.2 0C471.3 0 428.7 0 385.8 0C343 0 300 0 257.2 0C214.3 0 171.7 0 128.8 0C86 0 43 0 21.5 0L0 0Z" fill="#2a8911"></path><path d="M0 246L21.5 239.8C43 233.7 86 221.3 128.8 211.5C171.7 201.7 214.3 194.3 257.2 179.5C300 164.7 343 142.3 385.8 121.2C428.7 100 471.3 80 514.2 78.3C557 76.7 600 93.3 642.8 115.3C685.7 137.3 728.3 164.7 771.2 176C814 187.3 857 182.7 878.5 180.3L900 178L900 0L878.5 0C857 0 814 0 771.2 0C728.3 0 685.7 0 642.8 0C600 0 557 0 514.2 0C471.3 0 428.7 0 385.8 0C343 0 300 0 257.2 0C214.3 0 171.7 0 128.8 0C86 0 43 0 21.5 0L0 0Z" fill="#2d8313"></path><path d="M0 161L21.5 138.3C43 115.7 86 70.3 128.8 46.5C171.7 22.7 214.3 20.3 257.2 28.2C300 36 343 54 385.8 80.3C428.7 106.7 471.3 141.3 514.2 162.5C557 183.7 600 191.3 642.8 182.7C685.7 174 728.3 149 771.2 147.3C814 145.7 857 167.3 878.5 178.2L900 189L900 0L878.5 0C857 0 814 0 771.2 0C728.3 0 685.7 0 642.8 0C600 0 557 0 514.2 0C471.3 0 428.7 0 385.8 0C343 0 300 0 257.2 0C214.3 0 171.7 0 128.8 0C86 0 43 0 21.5 0L0 0Z" fill="#307d16"></path><path d="M0 152L21.5 128.5C43 105 86 58 128.8 39.7C171.7 21.3 214.3 31.7 257.2 53.8C300 76 343 110 385.8 104.8C428.7 99.7 471.3 55.3 514.2 45.7C557 36 600 61 642.8 66.5C685.7 72 728.3 58 771.2 56.3C814 54.7 857 65.3 878.5 70.7L900 76L900 0L878.5 0C857 0 814 0 771.2 0C728.3 0 685.7 0 642.8 0C600 0 557 0 514.2 0C471.3 0 428.7 0 385.8 0C343 0 300 0 257.2 0C214.3 0 171.7 0 128.8 0C86 0 43 0 21.5 0L0 0Z" fill="#317618"></path><path d="M0 123L21.5 112.2C43 101.3 86 79.7 128.8 67.5C171.7 55.3 214.3 52.7 257.2 61.5C300 70.3 343 90.7 385.8 93.8C428.7 97 471.3 83 514.2 73.5C557 64 600 59 642.8 59.3C685.7 59.7 728.3 65.3 771.2 71.2C814 77 857 83 878.5 86L900 89L900 0L878.5 0C857 0 814 0 771.2 0C728.3 0 685.7 0 642.8 0C600 0 557 0 514.2 0C471.3 0 428.7 0 385.8 0C343 0 300 0 257.2 0C214.3 0 171.7 0 128.8 0C86 0 43 0 21.5 0L0 0Z" fill="#327019"></path><path d="M0 81L21.5 76.3C43 71.7 86 62.3 128.8 54.8C171.7 47.3 214.3 41.7 257.2 37.5C300 33.3 343 30.7 385.8 25.7C428.7 20.7 471.3 13.3 514.2 18.7C557 24 600 42 642.8 47.7C685.7 53.3 728.3 46.7 771.2 43.3C814 40 857 40 878.5 40L900 40L900 0L878.5 0C857 0 814 0 771.2 0C728.3 0 685.7 0 642.8 0C600 0 557 0 514.2 0C471.3 0 428.7 0 385.8 0C343 0 300 0 257.2 0C214.3 0 171.7 0 128.8 0C86 0 43 0 21.5 0L0 0Z" fill="#336a1b"></path></svg>