<svg id="visual" viewBox="0 0 900 600" width="900" height="600" xmlns="http://www.w3.org/2000/svg" xmlns:xlink="http://www.w3.org/1999/xlink" version="1.1"><rect x="0" y="0" width="900" height="600" fill="#000000"></rect><path d="M0 384L21.5 378.8C43 373.7 86 363.3 128.8 361.8C171.7 360.3 214.3 367.7 257.2 382.3C300 397 343 419 385.8 430.5C428.7 442 471.3 443 514.2 437C557 431 600 418 642.8 417.2C685.7 416.3 728.3 427.7 771.2 424C814 420.3 857 401.7 878.5 392.3L900 383L900 601L878.5 601C857 601 814 601 771.2 601C728.3 601 685.7 601 642.8 601C600 601 557 601 514.2 601C471.3 601 428.7 601 385.8 601C343 601 300 601 257.2 601C214.3 601 171.7 601 128.8 601C86 601 43 601 21.5 601L0 601Z" fill="#69fa7b"></path><path d="M0 426L21.5 431.2C43 436.3 86 446.7 128.8 445.5C171.7 444.3 214.3 431.7 257.2 433C300 434.3 343 449.7 385.8 445.5C428.7 441.3 471.3 417.7 514.2 412.3C557 407 600 420 642.8 424.7C685.7 429.3 728.3 425.7 771.2 433.5C814 441.3 857 460.7 878.5 470.3L900 480L900 601L878.5 601C857 601 814 601 771.2 601C728.3 601 685.7 601 642.8 601C600 601 557 601 514.2 601C471.3 601 428.7 601 385.8 601C343 601 300 601 257.2 601C214.3 601 171.7 601 128.8 601C86 601 43 601 21.5 601L0 601Z" fill="#bbc81f"></path><path d="M0 494L21.5 487.3C43 480.7 86 467.3 128.8 467.8C171.7 468.3 214.3 482.7 257.2 484.7C300 486.7 343 476.3 385.8 475.5C428.7 474.7 471.3 483.3 514.2 486C557 488.7 600 485.3 642.8 480.2C685.7 475 728.3 468 771.2 464.8C814 461.7 857 462.3 878.5 462.7L900 463L900 601L878.5 601C857 601 814 601 771.2 601C728.3 601 685.7 601 642.8 601C600 601 557 601 514.2 601C471.3 601 428.7 601 385.8 601C343 601 300 601 257.2 601C214.3 601 171.7 601 128.8 601C86 601 43 601 21.5 601L0 601Z" fill="#e0900e"></path><path d="M0 520L21.5 521C43 522 86 524 128.8 527.3C171.7 530.7 214.3 535.3 257.2 535.2C300 535 343 530 385.8 520.5C428.7 511 471.3 497 514.2 491.8C557 486.7 600 490.3 642.8 498.8C685.7 507.3 728.3 520.7 771.2 520.8C814 521 857 508 878.5 501.5L900 495L900 601L878.5 601C857 601 814 601 771.2 601C728.3 601 685.7 601 642.8 601C600 601 557 601 514.2 601C471.3 601 428.7 601 385.8 601C343 601 300 601 257.2 601C214.3 601 171.7 601 128.8 601C86 601 43 601 21.5 601L0 601Z" fill="#e5543f"></path><path d="M0 534L21.5 535C43 536 86 538 128.8 536.8C171.7 535.7 214.3 531.3 257.2 531.7C300 532 343 537 385.8 541.7C428.7 546.3 471.3 550.7 514.2 555C557 559.3 600 563.7 642.8 562C685.7 560.3 728.3 552.7 771.2 552.7C814 552.7 857 560.3 878.5 564.2L900 568L900 601L878.5 601C857 601 814 601 771.2 601C728.3 601 685.7 601 642.8 601C600 601 557 601 514.2 601C471.3 601 428.7 601 385.8 601C343 601 300 601 257.2 601C214.3 601 171.7 601 128.8 601C86 601 43 601 21.5 601L0 601Z" fill="#c62368"></path></svg>