<svg id="visual" viewBox="0 0 900 600" width="900" height="600" xmlns="http://www.w3.org/2000/svg" xmlns:xlink="http://www.w3.org/1999/xlink" version="1.1"><rect x="0" y="0" width="900" height="600" fill="#000000"></rect><path d="M0 317L21.5 295.5C43 274 86 231 128.8 220.3C171.7 209.7 214.3 231.3 257.2 233.7C300 236 343 219 385.8 202.7C428.7 186.3 471.3 170.7 514.2 188.8C557 207 600 259 642.8 284.3C685.7 309.7 728.3 308.3 771.2 288.2C814 268 857 229 878.5 209.5L900 190L900 601L878.5 601C857 601 814 601 771.2 601C728.3 601 685.7 601 642.8 601C600 601 557 601 514.2 601C471.3 601 428.7 601 385.8 601C343 601 300 601 257.2 601C214.3 601 171.7 601 128.8 601C86 601 43 601 21.5 601L0 601Z" fill="#20ca34"></path><path d="M0 283L21.5 297.5C43 312 86 341 128.8 340.5C171.7 340 214.3 310 257.2 301.7C300 293.3 343 306.7 385.8 319.5C428.7 332.3 471.3 344.7 514.2 345.3C557 346 600 335 642.8 335.3C685.7 335.7 728.3 347.3 771.2 345.5C814 343.7 857 328.3 878.5 320.7L900 313L900 601L878.5 601C857 601 814 601 771.2 601C728.3 601 685.7 601 642.8 601C600 601 557 601 514.2 601C471.3 601 428.7 601 385.8 601C343 601 300 601 257.2 601C214.3 601 171.7 601 128.8 601C86 601 43 601 21.5 601L0 601Z" fill="#1aa62a"></path><path d="M0 360L21.5 369.5C43 379 86 398 128.8 401.5C171.7 405 214.3 393 257.2 380C300 367 343 353 385.8 357.3C428.7 361.7 471.3 384.3 514.2 386.2C557 388 600 369 642.8 371.7C685.7 374.3 728.3 398.7 771.2 410.7C814 422.7 857 422.3 878.5 422.2L900 422L900 601L878.5 601C857 601 814 601 771.2 601C728.3 601 685.7 601 642.8 601C600 601 557 601 514.2 601C471.3 601 428.7 601 385.8 601C343 601 300 601 257.2 601C214.3 601 171.7 601 128.8 601C86 601 43 601 21.5 601L0 601Z" fill="#148321"></path><path d="M0 399L21.5 399.3C43 399.7 86 400.3 128.8 400.2C171.7 400 214.3 399 257.2 398.3C300 397.7 343 397.3 385.8 412.2C428.7 427 471.3 457 514.2 472.8C557 488.7 600 490.3 642.8 474.3C685.7 458.3 728.3 424.7 771.2 411.8C814 399 857 407 878.5 411L900 415L900 601L878.5 601C857 601 814 601 771.2 601C728.3 601 685.7 601 642.8 601C600 601 557 601 514.2 601C471.3 601 428.7 601 385.8 601C343 601 300 601 257.2 601C214.3 601 171.7 601 128.8 601C86 601 43 601 21.5 601L0 601Z" fill="#0e6218"></path><path d="M0 516L21.5 513.5C43 511 86 506 128.8 512.2C171.7 518.3 214.3 535.7 257.2 537.7C300 539.7 343 526.3 385.8 524C428.7 521.7 471.3 530.3 514.2 530C557 529.7 600 520.3 642.8 516.3C685.7 512.3 728.3 513.7 771.2 515C814 516.3 857 517.7 878.5 518.3L900 519L900 601L878.5 601C857 601 814 601 771.2 601C728.3 601 685.7 601 642.8 601C600 601 557 601 514.2 601C471.3 601 428.7 601 385.8 601C343 601 300 601 257.2 601C214.3 601 171.7 601 128.8 601C86 601 43 601 21.5 601L0 601Z" fill="#09430f"></path></svg>