<svg id="visual" viewBox="0 0 900 600" width="900" height="600" xmlns="http://www.w3.org/2000/svg" xmlns:xlink="http://www.w3.org/1999/xlink" version="1.1"><rect x="0" y="0" width="900" height="600" fill="#000000"></rect><path d="M0 230L12.5 263.2C25 296.3 50 362.7 75 394.7C100 426.7 125 424.3 150 380.2C175 336 200 250 225 250.8C250 251.7 275 339.3 300 365C325 390.7 350 354.3 375 327.5C400 300.7 425 283.3 450 262.5C475 241.7 500 217.3 525 201.3C550 185.3 575 177.7 600 215.2C625 252.7 650 335.3 675 380.3C700 425.3 725 432.7 750 419C775 405.3 800 370.7 825 343.3C850 316 875 296 887.5 286L900 276L900 601L887.5 601C875 601 850 601 825 601C800 601 775 601 750 601C725 601 700 601 675 601C650 601 625 601 600 601C575 601 550 601 525 601C500 601 475 601 450 601C425 601 400 601 375 601C350 601 325 601 300 601C275 601 250 601 225 601C200 601 175 601 150 601C125 601 100 601 75 601C50 601 25 601 12.5 601L0 601Z" fill="#69fa7b"></path><path d="M0 415L12.5 416.2C25 417.3 50 419.7 75 402.5C100 385.3 125 348.7 150 321.2C175 293.7 200 275.3 225 272.7C250 270 275 283 300 302.8C325 322.7 350 349.3 375 373.5C400 397.7 425 419.3 450 395.2C475 371 500 301 525 265.7C550 230.3 575 229.7 600 271.2C625 312.7 650 396.3 675 396.2C700 396 725 312 750 309.8C775 307.7 800 387.3 825 400.7C850 414 875 361 887.5 334.5L900 308L900 601L887.5 601C875 601 850 601 825 601C800 601 775 601 750 601C725 601 700 601 675 601C650 601 625 601 600 601C575 601 550 601 525 601C500 601 475 601 450 601C425 601 400 601 375 601C350 601 325 601 300 601C275 601 250 601 225 601C200 601 175 601 150 601C125 601 100 601 75 601C50 601 25 601 12.5 601L0 601Z" fill="#62ed70"></path><path d="M0 266L12.5 297.3C25 328.7 50 391.3 75 410.7C100 430 125 406 150 395.7C175 385.3 200 388.7 225 363.7C250 338.7 275 285.3 300 267.2C325 249 350 266 375 274.8C400 283.7 425 284.3 450 297C475 309.7 500 334.3 525 350.2C550 366 575 373 600 377.5C625 382 650 384 675 371.7C700 359.3 725 332.7 750 349.8C775 367 800 428 825 443.7C850 459.3 875 429.7 887.5 414.8L900 400L900 601L887.5 601C875 601 850 601 825 601C800 601 775 601 750 601C725 601 700 601 675 601C650 601 625 601 600 601C575 601 550 601 525 601C500 601 475 601 450 601C425 601 400 601 375 601C350 601 325 601 300 601C275 601 250 601 225 601C200 601 175 601 150 601C125 601 100 601 75 601C50 601 25 601 12.5 601L0 601Z" fill="#5be165"></path><path d="M0 274L12.5 270.8C25 267.7 50 261.3 75 258.7C100 256 125 257 150 258.2C175 259.3 200 260.7 225 268.5C250 276.3 275 290.7 300 304.8C325 319 350 333 375 353.7C400 374.3 425 401.7 450 391.8C475 382 500 335 525 316.8C550 298.7 575 309.3 600 345.5C625 381.7 650 443.3 675 448.2C700 453 725 401 750 364.7C775 328.3 800 307.7 825 294.7C850 281.7 875 276.3 887.5 273.7L900 271L900 601L887.5 601C875 601 850 601 825 601C800 601 775 601 750 601C725 601 700 601 675 601C650 601 625 601 600 601C575 601 550 601 525 601C500 601 475 601 450 601C425 601 400 601 375 601C350 601 325 601 300 601C275 601 250 601 225 601C200 601 175 601 150 601C125 601 100 601 75 601C50 601 25 601 12.5 601L0 601Z" fill="#55d45b"></path><path d="M0 280L12.5 293.3C25 306.7 50 333.3 75 361.3C100 389.3 125 418.7 150 412.8C175 407 200 366 225 352.3C250 338.7 275 352.3 300 376.2C325 400 350 434 375 418.8C400 403.7 425 339.3 450 340.7C475 342 500 409 525 429.5C550 450 575 424 600 407.7C625 391.3 650 384.7 675 373C700 361.3 725 344.7 750 353.2C775 361.7 800 395.3 825 394.8C850 394.3 875 359.7 887.5 342.3L900 325L900 601L887.5 601C875 601 850 601 825 601C800 601 775 601 750 601C725 601 700 601 675 601C650 601 625 601 600 601C575 601 550 601 525 601C500 601 475 601 450 601C425 601 400 601 375 601C350 601 325 601 300 601C275 601 250 601 225 601C200 601 175 601 150 601C125 601 100 601 75 601C50 601 25 601 12.5 601L0 601Z" fill="#4ec850"></path><path d="M0 449L12.5 428.2C25 407.3 50 365.7 75 366.3C100 367 125 410 150 412.5C175 415 200 377 225 371C250 365 275 391 300 403.3C325 415.7 350 414.3 375 412.3C400 410.3 425 407.7 450 426C475 444.3 500 483.7 525 482C550 480.3 575 437.7 600 409.5C625 381.3 650 367.7 675 357.5C700 347.3 725 340.7 750 367.5C775 394.3 800 454.7 825 461.7C850 468.7 875 422.3 887.5 399.2L900 376L900 601L887.5 601C875 601 850 601 825 601C800 601 775 601 750 601C725 601 700 601 675 601C650 601 625 601 600 601C575 601 550 601 525 601C500 601 475 601 450 601C425 601 400 601 375 601C350 601 325 601 300 601C275 601 250 601 225 601C200 601 175 601 150 601C125 601 100 601 75 601C50 601 25 601 12.5 601L0 601Z" fill="#47bc46"></path><path d="M0 407L12.5 427.3C25 447.7 50 488.3 75 506.8C100 525.3 125 521.7 150 517C175 512.3 200 506.7 225 487C250 467.3 275 433.7 300 407.2C325 380.7 350 361.3 375 368.3C400 375.3 425 408.7 450 425C475 441.3 500 440.7 525 445C550 449.3 575 458.7 600 451.3C625 444 650 420 675 408.3C700 396.7 725 397.3 750 398.2C775 399 800 400 825 411C850 422 875 443 887.5 453.5L900 464L900 601L887.5 601C875 601 850 601 825 601C800 601 775 601 750 601C725 601 700 601 675 601C650 601 625 601 600 601C575 601 550 601 525 601C500 601 475 601 450 601C425 601 400 601 375 601C350 601 325 601 300 601C275 601 250 601 225 601C200 601 175 601 150 601C125 601 100 601 75 601C50 601 25 601 12.5 601L0 601Z" fill="#3fb03c"></path><path d="M0 425L12.5 418.7C25 412.3 50 399.7 75 400C100 400.3 125 413.7 150 416C175 418.3 200 409.7 225 418C250 426.3 275 451.7 300 452.7C325 453.7 350 430.3 375 434.3C400 438.3 425 469.7 450 489.3C475 509 500 517 525 514.8C550 512.7 575 500.3 600 493.8C625 487.3 650 486.7 675 479.5C700 472.3 725 458.7 750 457.2C775 455.7 800 466.3 825 455.3C850 444.3 875 411.7 887.5 395.3L900 379L900 601L887.5 601C875 601 850 601 825 601C800 601 775 601 750 601C725 601 700 601 675 601C650 601 625 601 600 601C575 601 550 601 525 601C500 601 475 601 450 601C425 601 400 601 375 601C350 601 325 601 300 601C275 601 250 601 225 601C200 601 175 601 150 601C125 601 100 601 75 601C50 601 25 601 12.5 601L0 601Z" fill="#38a432"></path><path d="M0 496L12.5 495.7C25 495.3 50 494.7 75 495.3C100 496 125 498 150 486.8C175 475.7 200 451.3 225 454.2C250 457 275 487 300 507.2C325 527.3 350 537.7 375 538.5C400 539.3 425 530.7 450 509.2C475 487.7 500 453.3 525 441.7C550 430 575 441 600 457.2C625 473.3 650 494.7 675 503.3C700 512 725 508 750 504.8C775 501.7 800 499.3 825 485.2C850 471 875 445 887.5 432L900 419L900 601L887.5 601C875 601 850 601 825 601C800 601 775 601 750 601C725 601 700 601 675 601C650 601 625 601 600 601C575 601 550 601 525 601C500 601 475 601 450 601C425 601 400 601 375 601C350 601 325 601 300 601C275 601 250 601 225 601C200 601 175 601 150 601C125 601 100 601 75 601C50 601 25 601 12.5 601L0 601Z" fill="#309827"></path><path d="M0 520L12.5 524.3C25 528.7 50 537.3 75 541.8C100 546.3 125 546.7 150 545.7C175 544.7 200 542.3 225 535.2C250 528 275 516 300 503.3C325 490.7 350 477.3 375 482.8C400 488.3 425 512.7 450 516C475 519.3 500 501.7 525 494.5C550 487.3 575 490.7 600 497.7C625 504.7 650 515.3 675 510.5C700 505.7 725 485.3 750 482.5C775 479.7 800 494.3 825 510.3C850 526.3 875 543.7 887.5 552.3L900 561L900 601L887.5 601C875 601 850 601 825 601C800 601 775 601 750 601C725 601 700 601 675 601C650 601 625 601 600 601C575 601 550 601 525 601C500 601 475 601 450 601C425 601 400 601 375 601C350 601 325 601 300 601C275 601 250 601 225 601C200 601 175 601 150 601C125 601 100 601 75 601C50 601 25 601 12.5 601L0 601Z" fill="#288d1c"></path><path d="M0 564L12.5 555.3C25 546.7 50 529.3 75 529C100 528.7 125 545.3 150 543.8C175 542.3 200 522.7 225 519.5C250 516.3 275 529.7 300 539C325 548.3 350 553.7 375 545.3C400 537 425 515 450 511.5C475 508 500 523 525 528.7C550 534.3 575 530.7 600 524.7C625 518.7 650 510.3 675 508.5C700 506.7 725 511.3 750 509.8C775 508.3 800 500.7 825 501.2C850 501.7 875 510.3 887.5 514.7L900 519L900 601L887.5 601C875 601 850 601 825 601C800 601 775 601 750 601C725 601 700 601 675 601C650 601 625 601 600 601C575 601 550 601 525 601C500 601 475 601 450 601C425 601 400 601 375 601C350 601 325 601 300 601C275 601 250 601 225 601C200 601 175 601 150 601C125 601 100 601 75 601C50 601 25 601 12.5 601L0 601Z" fill="#208110"></path><path d="M0 573L12.5 568.5C25 564 50 555 75 548.2C100 541.3 125 536.7 150 533.7C175 530.7 200 529.3 225 537.3C250 545.3 275 562.7 300 570.3C325 578 350 576 375 567.2C400 558.3 425 542.7 450 537C475 531.3 500 535.7 525 538.8C550 542 575 544 600 550.7C625 557.3 650 568.7 675 573.5C700 578.3 725 576.7 750 575.5C775 574.3 800 573.7 825 573.3C850 573 875 573 887.5 573L900 573L900 601L887.5 601C875 601 850 601 825 601C800 601 775 601 750 601C725 601 700 601 675 601C650 601 625 601 600 601C575 601 550 601 525 601C500 601 475 601 450 601C425 601 400 601 375 601C350 601 325 601 300 601C275 601 250 601 225 601C200 601 175 601 150 601C125 601 100 601 75 601C50 601 25 601 12.5 601L0 601Z" fill="#177602"></path></svg>