<svg id="visual" viewBox="0 0 900 600" width="900" height="600" xmlns="http://www.w3.org/2000/svg" xmlns:xlink="http://www.w3.org/1999/xlink" version="1.1"><rect x="0" y="0" width="900" height="600" fill="#101111"></rect><path d="M0 151L25 162.5C50 174 100 197 150 197.8C200 198.7 250 177.3 300 171.8C350 166.3 400 176.7 450 182.3C500 188 550 189 600 187.3C650 185.7 700 181.3 750 166.3C800 151.3 850 125.7 875 112.8L900 100L900 601L875 601C850 601 800 601 750 601C700 601 650 601 600 601C550 601 500 601 450 601C400 601 350 601 300 601C250 601 200 601 150 601C100 601 50 601 25 601L0 601Z" fill="#49d072"></path><path d="M0 262L25 262C50 262 100 262 150 268.7C200 275.3 250 288.7 300 289.7C350 290.7 400 279.3 450 271C500 262.7 550 257.3 600 243.5C650 229.7 700 207.3 750 209C800 210.7 850 236.3 875 249.2L900 262L900 601L875 601C850 601 800 601 750 601C700 601 650 601 600 601C550 601 500 601 450 601C400 601 350 601 300 601C250 601 200 601 150 601C100 601 50 601 25 601L0 601Z" fill="#31a64c"></path><path d="M0 305L25 294.3C50 283.7 100 262.3 150 259C200 255.7 250 270.3 300 290.8C350 311.3 400 337.7 450 333.3C500 329 550 294 600 276.2C650 258.3 700 257.7 750 269.2C800 280.7 850 304.3 875 316.2L900 328L900 601L875 601C850 601 800 601 750 601C700 601 650 601 600 601C550 601 500 601 450 601C400 601 350 601 300 601C250 601 200 601 150 601C100 601 50 601 25 601L0 601Z" fill="#147d27"></path><path d="M0 432L25 430.8C50 429.7 100 427.3 150 414.2C200 401 250 377 300 373.7C350 370.3 400 387.7 450 397C500 406.3 550 407.7 600 408.8C650 410 700 411 750 411.5C800 412 850 412 875 412L900 412L900 601L875 601C850 601 800 601 750 601C700 601 650 601 600 601C550 601 500 601 450 601C400 601 350 601 300 601C250 601 200 601 150 601C100 601 50 601 25 601L0 601Z" fill="#005700"></path><path d="M0 406L25 420.7C50 435.3 100 464.7 150 466.7C200 468.7 250 443.3 300 431C350 418.7 400 419.3 450 418.3C500 417.3 550 414.7 600 412C650 409.3 700 406.7 750 419.2C800 431.7 850 459.3 875 473.2L900 487L900 601L875 601C850 601 800 601 750 601C700 601 650 601 600 601C550 601 500 601 450 601C400 601 350 601 300 601C250 601 200 601 150 601C100 601 50 601 25 601L0 601Z" fill="#003200"></path><path d="M0 492L25 490.3C50 488.7 100 485.3 150 488.5C200 491.7 250 501.3 300 505.5C350 509.7 400 508.3 450 502.3C500 496.3 550 485.7 600 480.8C650 476 700 477 750 488.7C800 500.3 850 522.7 875 533.8L900 545L900 601L875 601C850 601 800 601 750 601C700 601 650 601 600 601C550 601 500 601 450 601C400 601 350 601 300 601C250 601 200 601 150 601C100 601 50 601 25 601L0 601Z" fill="#000000"></path></svg>