<svg id="visual" viewBox="0 0 900 600" width="900" height="600" xmlns="http://www.w3.org/2000/svg" xmlns:xlink="http://www.w3.org/1999/xlink" version="1.1"><rect x="0" y="0" width="900" height="600" fill="#000000"></rect><path d="M0 229L21.5 219.3C43 209.7 86 190.3 128.8 208.3C171.7 226.3 214.3 281.7 257.2 260.7C300 239.7 343 142.3 385.8 180.5C428.7 218.7 471.3 392.3 514.2 409.3C557 426.3 600 286.7 642.8 287C685.7 287.3 728.3 427.7 771.2 439.7C814 451.7 857 335.3 878.5 277.2L900 219L900 601L878.5 601C857 601 814 601 771.2 601C728.3 601 685.7 601 642.8 601C600 601 557 601 514.2 601C471.3 601 428.7 601 385.8 601C343 601 300 601 257.2 601C214.3 601 171.7 601 128.8 601C86 601 43 601 21.5 601L0 601Z" fill="#37a315"></path><path d="M0 305L21.5 288.8C43 272.7 86 240.3 128.8 233C171.7 225.7 214.3 243.3 257.2 261C300 278.7 343 296.3 385.8 290.3C428.7 284.3 471.3 254.7 514.2 277.2C557 299.7 600 374.3 642.8 392.7C685.7 411 728.3 373 771.2 338C814 303 857 271 878.5 255L900 239L900 601L878.5 601C857 601 814 601 771.2 601C728.3 601 685.7 601 642.8 601C600 601 557 601 514.2 601C471.3 601 428.7 601 385.8 601C343 601 300 601 257.2 601C214.3 601 171.7 601 128.8 601C86 601 43 601 21.5 601L0 601Z" fill="#349c17"></path><path d="M0 470L21.5 461C43 452 86 434 128.8 442C171.7 450 214.3 484 257.2 481.2C300 478.3 343 438.7 385.8 403.2C428.7 367.7 471.3 336.3 514.2 316.3C557 296.3 600 287.7 642.8 285.2C685.7 282.7 728.3 286.3 771.2 280.7C814 275 857 260 878.5 252.5L900 245L900 601L878.5 601C857 601 814 601 771.2 601C728.3 601 685.7 601 642.8 601C600 601 557 601 514.2 601C471.3 601 428.7 601 385.8 601C343 601 300 601 257.2 601C214.3 601 171.7 601 128.8 601C86 601 43 601 21.5 601L0 601Z" fill="#329518"></path><path d="M0 556L21.5 512.3C43 468.7 86 381.3 128.8 314.2C171.7 247 214.3 200 257.2 241.8C300 283.7 343 414.3 385.8 473.8C428.7 533.3 471.3 521.7 514.2 508.3C557 495 600 480 642.8 420.5C685.7 361 728.3 257 771.2 226.5C814 196 857 239 878.5 260.5L900 282L900 601L878.5 601C857 601 814 601 771.2 601C728.3 601 685.7 601 642.8 601C600 601 557 601 514.2 601C471.3 601 428.7 601 385.8 601C343 601 300 601 257.2 601C214.3 601 171.7 601 128.8 601C86 601 43 601 21.5 601L0 601Z" fill="#2f8e19"></path><path d="M0 431L21.5 443.7C43 456.3 86 481.7 128.8 448.8C171.7 416 214.3 325 257.2 284.5C300 244 343 254 385.8 267.3C428.7 280.7 471.3 297.3 514.2 302.2C557 307 600 300 642.8 331.2C685.7 362.3 728.3 431.7 771.2 475.8C814 520 857 539 878.5 548.5L900 558L900 601L878.5 601C857 601 814 601 771.2 601C728.3 601 685.7 601 642.8 601C600 601 557 601 514.2 601C471.3 601 428.7 601 385.8 601C343 601 300 601 257.2 601C214.3 601 171.7 601 128.8 601C86 601 43 601 21.5 601L0 601Z" fill="#2d881a"></path><path d="M0 560L21.5 539.7C43 519.3 86 478.7 128.8 481.3C171.7 484 214.3 530 257.2 506C300 482 343 388 385.8 341C428.7 294 471.3 294 514.2 298.8C557 303.7 600 313.3 642.8 316.5C685.7 319.7 728.3 316.3 771.2 349C814 381.7 857 450.3 878.5 484.7L900 519L900 601L878.5 601C857 601 814 601 771.2 601C728.3 601 685.7 601 642.8 601C600 601 557 601 514.2 601C471.3 601 428.7 601 385.8 601C343 601 300 601 257.2 601C214.3 601 171.7 601 128.8 601C86 601 43 601 21.5 601L0 601Z" fill="#2b811a"></path><path d="M0 591L21.5 566.8C43 542.7 86 494.3 128.8 456.3C171.7 418.3 214.3 390.7 257.2 368C300 345.3 343 327.7 385.8 354.8C428.7 382 471.3 454 514.2 488.5C557 523 600 520 642.8 527.2C685.7 534.3 728.3 551.7 771.2 543.2C814 534.7 857 500.3 878.5 483.2L900 466L900 601L878.5 601C857 601 814 601 771.2 601C728.3 601 685.7 601 642.8 601C600 601 557 601 514.2 601C471.3 601 428.7 601 385.8 601C343 601 300 601 257.2 601C214.3 601 171.7 601 128.8 601C86 601 43 601 21.5 601L0 601Z" fill="#297a1a"></path><path d="M0 446L21.5 458.5C43 471 86 496 128.8 503.8C171.7 511.7 214.3 502.3 257.2 490.8C300 479.3 343 465.7 385.8 467C428.7 468.3 471.3 484.7 514.2 480.5C557 476.3 600 451.7 642.8 439.5C685.7 427.3 728.3 427.7 771.2 429.8C814 432 857 436 878.5 438L900 440L900 601L878.5 601C857 601 814 601 771.2 601C728.3 601 685.7 601 642.8 601C600 601 557 601 514.2 601C471.3 601 428.7 601 385.8 601C343 601 300 601 257.2 601C214.3 601 171.7 601 128.8 601C86 601 43 601 21.5 601L0 601Z" fill="#27741a"></path><path d="M0 519L21.5 508.5C43 498 86 477 128.8 472.8C171.7 468.7 214.3 481.3 257.2 474.3C300 467.3 343 440.7 385.8 432.2C428.7 423.7 471.3 433.3 514.2 447.3C557 461.3 600 479.7 642.8 499.7C685.7 519.7 728.3 541.3 771.2 555.3C814 569.3 857 575.7 878.5 578.8L900 582L900 601L878.5 601C857 601 814 601 771.2 601C728.3 601 685.7 601 642.8 601C600 601 557 601 514.2 601C471.3 601 428.7 601 385.8 601C343 601 300 601 257.2 601C214.3 601 171.7 601 128.8 601C86 601 43 601 21.5 601L0 601Z" fill="#256d1a"></path><path d="M0 457L21.5 467.8C43 478.7 86 500.3 128.8 520.2C171.7 540 214.3 558 257.2 567.7C300 577.3 343 578.7 385.8 568.3C428.7 558 471.3 536 514.2 524.7C557 513.3 600 512.7 642.8 507C685.7 501.3 728.3 490.7 771.2 503.3C814 516 857 552 878.5 570L900 588L900 601L878.5 601C857 601 814 601 771.2 601C728.3 601 685.7 601 642.8 601C600 601 557 601 514.2 601C471.3 601 428.7 601 385.8 601C343 601 300 601 257.2 601C214.3 601 171.7 601 128.8 601C86 601 43 601 21.5 601L0 601Z" fill="#246619"></path><path d="M0 586L21.5 583.5C43 581 86 576 128.8 571.2C171.7 566.3 214.3 561.7 257.2 560.3C300 559 343 561 385.8 556.7C428.7 552.3 471.3 541.7 514.2 539C557 536.3 600 541.7 642.8 552.3C685.7 563 728.3 579 771.2 576.7C814 574.3 857 553.7 878.5 543.3L900 533L900 601L878.5 601C857 601 814 601 771.2 601C728.3 601 685.7 601 642.8 601C600 601 557 601 514.2 601C471.3 601 428.7 601 385.8 601C343 601 300 601 257.2 601C214.3 601 171.7 601 128.8 601C86 601 43 601 21.5 601L0 601Z" fill="#226019"></path></svg>